<svg width="54" height="62" viewBox="0 0 54 62" fill="none" xmlns="http://www.w3.org/2000/svg">
<path fill-rule="evenodd" clip-rule="evenodd" d="M26.6923 0C27.7035 0 28.6732 0.401674 29.3882 1.11666C30.1031 1.83164 30.5048 2.80136 30.5048 3.8125V47.9841L46.8681 31.6132C47.2225 31.2588 47.6434 30.9776 48.1065 30.7858C48.5696 30.5939 49.066 30.4952 49.5673 30.4952C50.0686 30.4952 50.565 30.5939 51.0281 30.7858C51.4913 30.9776 51.9121 31.2588 52.2666 31.6132C52.621 31.9677 52.9022 32.3885 53.0941 32.8517C53.2859 33.3148 53.3846 33.8112 53.3846 34.3125C53.3846 34.8138 53.2859 35.3102 53.0941 35.7733C52.9022 36.2365 52.621 36.6573 52.2666 37.0117L29.3916 59.8867C29.0374 60.2418 28.6167 60.5235 28.1535 60.7157C27.6903 60.9079 27.1938 61.0068 26.6923 61.0068C26.1908 61.0068 25.6943 60.9079 25.2311 60.7157C24.7679 60.5235 24.3472 60.2418 23.9931 59.8867L1.11807 37.0117C0.763596 36.6573 0.482414 36.2365 0.290576 35.7733C0.0987381 35.3102 0 34.8138 0 34.3125C0 33.8112 0.0987381 33.3148 0.290576 32.8517C0.482414 32.3885 0.763596 31.9677 1.11807 31.6132C1.83395 30.8974 2.8049 30.4952 3.81732 30.4952C4.31861 30.4952 4.815 30.5939 5.27814 30.7858C5.74128 30.9776 6.1621 31.2588 6.51657 31.6132L22.8798 47.9841V3.8125C22.8798 2.80136 23.2815 1.83164 23.9965 1.11666C24.7115 0.401674 25.6812 0 26.6923 0Z" fill="white"/>
</svg>
