<svg xmlns="http://www.w3.org/2000/svg" version="1.1" xmlns:xlink="http://www.w3.org/1999/xlink" xmlns:svgjs="http://svgjs.com/svgjs" width="512" height="512" x="0" y="0" viewBox="0 0 24 24" style="enable-background:new 0 0 512 512" xml:space="preserve" class=""><g><path xmlns="http://www.w3.org/2000/svg" d="m18 1h-12a5.006 5.006 0 0 0 -5 5v8a5.009 5.009 0 0 0 4 4.9v3.1a1 1 0 0 0 1.555.832l5.745-3.832h5.7a5.006 5.006 0 0 0 5-5v-8a5.006 5.006 0 0 0 -5-5zm-2 12h-8a1 1 0 0 1 0-2h8a1 1 0 0 1 0 2zm2-4h-12a1 1 0 0 1 0-2h12a1 1 0 0 1 0 2z" fill="#ffffff" data-original="#000000" class=""/></g></svg>