<svg width="1920" height="1080" viewBox="0 0 1920 1080" fill="none" xmlns="http://www.w3.org/2000/svg">
<g clip-path="url(#clip0_267_1053)">
<circle cx="42.6667" cy="24" r="2" fill="#E6FAFA" fill-opacity="0.25"/>
<circle cx="100" cy="24" r="2" fill="#E6FAFA" fill-opacity="0.25"/>
<circle cx="157.333" cy="24" r="2" fill="#E6FAFA" fill-opacity="0.25"/>
<circle cx="214.667" cy="24" r="2" fill="#E6FAFA" fill-opacity="0.25"/>
<circle cx="272" cy="24" r="2" fill="#E6FAFA" fill-opacity="0.25"/>
<circle cx="329.333" cy="24" r="2" fill="#E6FAFA" fill-opacity="0.25"/>
<circle cx="386.667" cy="24" r="2" fill="#E6FAFA" fill-opacity="0.25"/>
<circle cx="444" cy="24" r="2" fill="#E6FAFA" fill-opacity="0.25"/>
<circle cx="501.333" cy="24" r="2" fill="#E6FAFA" fill-opacity="0.25"/>
<circle cx="558.667" cy="24" r="2" fill="#E6FAFA" fill-opacity="0.25"/>
<circle cx="616" cy="24" r="2" fill="#E6FAFA" fill-opacity="0.25"/>
<circle cx="673.333" cy="24" r="2" fill="#E6FAFA" fill-opacity="0.25"/>
<circle cx="730.667" cy="24" r="2" fill="#E6FAFA" fill-opacity="0.25"/>
<circle cx="788" cy="24" r="2" fill="#E6FAFA" fill-opacity="0.25"/>
<circle cx="845.333" cy="24" r="2" fill="#E6FAFA" fill-opacity="0.25"/>
<circle cx="902.667" cy="24" r="2" fill="#E6FAFA" fill-opacity="0.25"/>
<circle cx="960" cy="24" r="2" fill="#E6FAFA" fill-opacity="0.25"/>
<circle cx="1017.33" cy="24" r="2" fill="#E6FAFA" fill-opacity="0.25"/>
<circle cx="1074.67" cy="24" r="2" fill="#E6FAFA" fill-opacity="0.25"/>
<circle cx="1132" cy="24" r="2" fill="#E6FAFA" fill-opacity="0.25"/>
<circle cx="1189.33" cy="24" r="2" fill="#E6FAFA" fill-opacity="0.25"/>
<circle cx="1246.67" cy="24" r="2" fill="#E6FAFA" fill-opacity="0.25"/>
<circle cx="1304" cy="24" r="2" fill="#E6FAFA" fill-opacity="0.25"/>
<circle cx="1361.33" cy="24" r="2" fill="#E6FAFA" fill-opacity="0.25"/>
<circle cx="1418.67" cy="24" r="2" fill="#E6FAFA" fill-opacity="0.25"/>
<circle cx="1476" cy="24" r="2" fill="#E6FAFA" fill-opacity="0.25"/>
<circle cx="1533.33" cy="24" r="2" fill="#E6FAFA" fill-opacity="0.25"/>
<circle cx="1590.67" cy="24" r="2" fill="#E6FAFA" fill-opacity="0.25"/>
<circle cx="1648" cy="24" r="2" fill="#E6FAFA" fill-opacity="0.25"/>
<circle cx="1705.33" cy="24" r="2" fill="#E6FAFA" fill-opacity="0.25"/>
<circle cx="1762.67" cy="24" r="2" fill="#E6FAFA" fill-opacity="0.25"/>
<circle cx="1820" cy="24" r="2" fill="#E6FAFA" fill-opacity="0.25"/>
<circle cx="1877.33" cy="24" r="2" fill="#E6FAFA" fill-opacity="0.25"/>
<circle cx="42.6667" cy="81.3334" r="2" fill="#E6FAFA" fill-opacity="0.25"/>
<circle cx="100" cy="81.3334" r="2" fill="#E6FAFA" fill-opacity="0.25"/>
<circle cx="157.333" cy="81.3334" r="2" fill="#E6FAFA" fill-opacity="0.25"/>
<circle cx="214.667" cy="81.3334" r="2" fill="#E6FAFA" fill-opacity="0.25"/>
<circle cx="272" cy="81.3334" r="2" fill="#E6FAFA" fill-opacity="0.25"/>
<circle cx="329.333" cy="81.3334" r="2" fill="#E6FAFA" fill-opacity="0.25"/>
<circle cx="386.667" cy="81.3334" r="2" fill="#E6FAFA" fill-opacity="0.25"/>
<circle cx="444" cy="81.3334" r="2" fill="#E6FAFA" fill-opacity="0.25"/>
<circle cx="501.333" cy="81.3334" r="2" fill="#E6FAFA" fill-opacity="0.25"/>
<circle cx="558.667" cy="81.3334" r="2" fill="#E6FAFA" fill-opacity="0.25"/>
<circle cx="616" cy="81.3334" r="2" fill="#E6FAFA" fill-opacity="0.25"/>
<circle cx="673.333" cy="81.3334" r="2" fill="#E6FAFA" fill-opacity="0.25"/>
<circle cx="730.667" cy="81.3334" r="2" fill="#E6FAFA" fill-opacity="0.25"/>
<circle cx="788" cy="81.3334" r="2" fill="#E6FAFA" fill-opacity="0.25"/>
<circle cx="845.333" cy="81.3334" r="2" fill="#E6FAFA" fill-opacity="0.25"/>
<circle cx="902.667" cy="81.3334" r="2" fill="#E6FAFA" fill-opacity="0.25"/>
<circle cx="960" cy="81.3334" r="2" fill="#E6FAFA" fill-opacity="0.25"/>
<circle cx="1017.33" cy="81.3334" r="2" fill="#E6FAFA" fill-opacity="0.25"/>
<circle cx="1074.67" cy="81.3334" r="2" fill="#E6FAFA" fill-opacity="0.25"/>
<circle cx="1132" cy="81.3334" r="2" fill="#E6FAFA" fill-opacity="0.25"/>
<circle cx="1189.33" cy="81.3334" r="2" fill="#E6FAFA" fill-opacity="0.25"/>
<circle cx="1246.67" cy="81.3334" r="2" fill="#E6FAFA" fill-opacity="0.25"/>
<circle cx="1304" cy="81.3334" r="2" fill="#E6FAFA" fill-opacity="0.25"/>
<circle cx="1361.33" cy="81.3334" r="2" fill="#E6FAFA" fill-opacity="0.25"/>
<circle cx="1418.67" cy="81.3334" r="2" fill="#E6FAFA" fill-opacity="0.25"/>
<circle cx="1476" cy="81.3334" r="2" fill="#E6FAFA" fill-opacity="0.25"/>
<circle cx="1533.33" cy="81.3334" r="2" fill="#E6FAFA" fill-opacity="0.25"/>
<circle cx="1590.67" cy="81.3334" r="2" fill="#E6FAFA" fill-opacity="0.25"/>
<circle cx="1648" cy="81.3334" r="2" fill="#E6FAFA" fill-opacity="0.25"/>
<circle cx="1705.33" cy="81.3334" r="2" fill="#E6FAFA" fill-opacity="0.25"/>
<circle cx="1762.67" cy="81.3334" r="2" fill="#E6FAFA" fill-opacity="0.25"/>
<circle cx="1820" cy="81.3334" r="2" fill="#E6FAFA" fill-opacity="0.25"/>
<circle cx="1877.33" cy="81.3334" r="2" fill="#E6FAFA" fill-opacity="0.25"/>
<circle cx="42.6667" cy="138.667" r="2" fill="#E6FAFA" fill-opacity="0.25"/>
<circle cx="100" cy="138.667" r="2" fill="#E6FAFA" fill-opacity="0.25"/>
<circle cx="157.333" cy="138.667" r="2" fill="#E6FAFA" fill-opacity="0.25"/>
<circle cx="214.667" cy="138.667" r="2" fill="#E6FAFA" fill-opacity="0.25"/>
<circle cx="272" cy="138.667" r="2" fill="#E6FAFA" fill-opacity="0.25"/>
<circle cx="329.333" cy="138.667" r="2" fill="#E6FAFA" fill-opacity="0.25"/>
<circle cx="386.667" cy="138.667" r="2" fill="#E6FAFA" fill-opacity="0.25"/>
<circle cx="444" cy="138.667" r="2" fill="#E6FAFA" fill-opacity="0.25"/>
<circle cx="501.333" cy="138.667" r="2" fill="#E6FAFA" fill-opacity="0.25"/>
<circle cx="558.667" cy="138.667" r="2" fill="#E6FAFA" fill-opacity="0.25"/>
<circle cx="616" cy="138.667" r="2" fill="#E6FAFA" fill-opacity="0.25"/>
<circle cx="673.333" cy="138.667" r="2" fill="#E6FAFA" fill-opacity="0.25"/>
<circle cx="730.667" cy="138.667" r="2" fill="#E6FAFA" fill-opacity="0.25"/>
<circle cx="788" cy="138.667" r="2" fill="#E6FAFA" fill-opacity="0.25"/>
<circle cx="845.333" cy="138.667" r="2" fill="#E6FAFA" fill-opacity="0.25"/>
<circle cx="902.667" cy="138.667" r="2" fill="#E6FAFA" fill-opacity="0.25"/>
<circle cx="960" cy="138.667" r="2" fill="#E6FAFA" fill-opacity="0.25"/>
<circle cx="1017.33" cy="138.667" r="2" fill="#E6FAFA" fill-opacity="0.25"/>
<circle cx="1074.67" cy="138.667" r="2" fill="#E6FAFA" fill-opacity="0.25"/>
<circle cx="1132" cy="138.667" r="2" fill="#E6FAFA" fill-opacity="0.25"/>
<circle cx="1189.33" cy="138.667" r="2" fill="#E6FAFA" fill-opacity="0.25"/>
<circle cx="1246.67" cy="138.667" r="2" fill="#E6FAFA" fill-opacity="0.25"/>
<circle cx="1304" cy="138.667" r="2" fill="#E6FAFA" fill-opacity="0.25"/>
<circle cx="1361.33" cy="138.667" r="2" fill="#E6FAFA" fill-opacity="0.25"/>
<circle cx="1418.67" cy="138.667" r="2" fill="#E6FAFA" fill-opacity="0.25"/>
<circle cx="1476" cy="138.667" r="2" fill="#E6FAFA" fill-opacity="0.25"/>
<circle cx="1533.33" cy="138.667" r="2" fill="#E6FAFA" fill-opacity="0.25"/>
<circle cx="1590.67" cy="138.667" r="2" fill="#E6FAFA" fill-opacity="0.25"/>
<circle cx="1648" cy="138.667" r="2" fill="#E6FAFA" fill-opacity="0.25"/>
<circle cx="1705.33" cy="138.667" r="2" fill="#E6FAFA" fill-opacity="0.25"/>
<circle cx="1762.67" cy="138.667" r="2" fill="#E6FAFA" fill-opacity="0.25"/>
<circle cx="1820" cy="138.667" r="2" fill="#E6FAFA" fill-opacity="0.25"/>
<circle cx="1877.33" cy="138.667" r="2" fill="#E6FAFA" fill-opacity="0.25"/>
<circle cx="42.6667" cy="196" r="2" fill="#E6FAFA" fill-opacity="0.25"/>
<circle cx="100" cy="196" r="2" fill="#E6FAFA" fill-opacity="0.25"/>
<circle cx="157.333" cy="196" r="2" fill="#E6FAFA" fill-opacity="0.25"/>
<circle cx="214.667" cy="196" r="2" fill="#E6FAFA" fill-opacity="0.25"/>
<circle cx="272" cy="196" r="2" fill="#E6FAFA" fill-opacity="0.25"/>
<circle cx="329.333" cy="196" r="2" fill="#E6FAFA" fill-opacity="0.25"/>
<circle cx="386.667" cy="196" r="2" fill="#E6FAFA" fill-opacity="0.25"/>
<circle cx="444" cy="196" r="2" fill="#E6FAFA" fill-opacity="0.25"/>
<circle cx="501.333" cy="196" r="2" fill="#E6FAFA" fill-opacity="0.25"/>
<circle cx="558.667" cy="196" r="2" fill="#E6FAFA" fill-opacity="0.25"/>
<circle cx="616" cy="196" r="2" fill="#E6FAFA" fill-opacity="0.25"/>
<circle cx="673.333" cy="196" r="2" fill="#E6FAFA" fill-opacity="0.25"/>
<circle cx="730.667" cy="196" r="2" fill="#E6FAFA" fill-opacity="0.25"/>
<circle cx="788" cy="196" r="2" fill="#E6FAFA" fill-opacity="0.25"/>
<circle cx="845.333" cy="196" r="2" fill="#E6FAFA" fill-opacity="0.25"/>
<circle cx="902.667" cy="196" r="2" fill="#E6FAFA" fill-opacity="0.25"/>
<circle cx="960" cy="196" r="2" fill="#E6FAFA" fill-opacity="0.25"/>
<circle cx="1017.33" cy="196" r="2" fill="#E6FAFA" fill-opacity="0.25"/>
<circle cx="1074.67" cy="196" r="2" fill="#E6FAFA" fill-opacity="0.25"/>
<circle cx="1132" cy="196" r="2" fill="#E6FAFA" fill-opacity="0.25"/>
<circle cx="1189.33" cy="196" r="2" fill="#E6FAFA" fill-opacity="0.25"/>
<circle cx="1246.67" cy="196" r="2" fill="#E6FAFA" fill-opacity="0.25"/>
<circle cx="1304" cy="196" r="2" fill="#E6FAFA" fill-opacity="0.25"/>
<circle cx="1361.33" cy="196" r="2" fill="#E6FAFA" fill-opacity="0.25"/>
<circle cx="1418.67" cy="196" r="2" fill="#E6FAFA" fill-opacity="0.25"/>
<circle cx="1476" cy="196" r="2" fill="#E6FAFA" fill-opacity="0.25"/>
<circle cx="1533.33" cy="196" r="2" fill="#E6FAFA" fill-opacity="0.25"/>
<circle cx="1590.67" cy="196" r="2" fill="#E6FAFA" fill-opacity="0.25"/>
<circle cx="1648" cy="196" r="2" fill="#E6FAFA" fill-opacity="0.25"/>
<circle cx="1705.33" cy="196" r="2" fill="#E6FAFA" fill-opacity="0.25"/>
<circle cx="1762.67" cy="196" r="2" fill="#E6FAFA" fill-opacity="0.25"/>
<circle cx="1820" cy="196" r="2" fill="#E6FAFA" fill-opacity="0.25"/>
<circle cx="1877.33" cy="196" r="2" fill="#E6FAFA" fill-opacity="0.25"/>
<circle cx="42.6667" cy="253.333" r="2" fill="#E6FAFA" fill-opacity="0.25"/>
<circle cx="100" cy="253.333" r="2" fill="#E6FAFA" fill-opacity="0.25"/>
<circle cx="157.333" cy="253.333" r="2" fill="#E6FAFA" fill-opacity="0.25"/>
<circle cx="214.667" cy="253.333" r="2" fill="#E6FAFA" fill-opacity="0.25"/>
<circle cx="272" cy="253.333" r="2" fill="#E6FAFA" fill-opacity="0.25"/>
<circle cx="329.333" cy="253.333" r="2" fill="#E6FAFA" fill-opacity="0.25"/>
<circle cx="386.667" cy="253.333" r="2" fill="#E6FAFA" fill-opacity="0.25"/>
<circle cx="444" cy="253.333" r="2" fill="#E6FAFA" fill-opacity="0.25"/>
<circle cx="501.333" cy="253.333" r="2" fill="#E6FAFA" fill-opacity="0.25"/>
<circle cx="558.667" cy="253.333" r="2" fill="#E6FAFA" fill-opacity="0.25"/>
<circle cx="616" cy="253.333" r="2" fill="#E6FAFA" fill-opacity="0.25"/>
<circle cx="673.333" cy="253.333" r="2" fill="#E6FAFA" fill-opacity="0.25"/>
<circle cx="730.667" cy="253.333" r="2" fill="#E6FAFA" fill-opacity="0.25"/>
<circle cx="788" cy="253.333" r="2" fill="#E6FAFA" fill-opacity="0.25"/>
<circle cx="845.333" cy="253.333" r="2" fill="#E6FAFA" fill-opacity="0.25"/>
<circle cx="902.667" cy="253.333" r="2" fill="#E6FAFA" fill-opacity="0.25"/>
<circle cx="960" cy="253.333" r="2" fill="#E6FAFA" fill-opacity="0.25"/>
<circle cx="1017.33" cy="253.333" r="2" fill="#E6FAFA" fill-opacity="0.25"/>
<circle cx="1074.67" cy="253.333" r="2" fill="#E6FAFA" fill-opacity="0.25"/>
<circle cx="1132" cy="253.333" r="2" fill="#E6FAFA" fill-opacity="0.25"/>
<circle cx="1189.33" cy="253.333" r="2" fill="#E6FAFA" fill-opacity="0.25"/>
<circle cx="1246.67" cy="253.333" r="2" fill="#E6FAFA" fill-opacity="0.25"/>
<circle cx="1304" cy="253.333" r="2" fill="#E6FAFA" fill-opacity="0.25"/>
<circle cx="1361.33" cy="253.333" r="2" fill="#E6FAFA" fill-opacity="0.25"/>
<circle cx="1418.67" cy="253.333" r="2" fill="#E6FAFA" fill-opacity="0.25"/>
<circle cx="1476" cy="253.333" r="2" fill="#E6FAFA" fill-opacity="0.25"/>
<circle cx="1533.33" cy="253.333" r="2" fill="#E6FAFA" fill-opacity="0.25"/>
<circle cx="1590.67" cy="253.333" r="2" fill="#E6FAFA" fill-opacity="0.25"/>
<circle cx="1648" cy="253.333" r="2" fill="#E6FAFA" fill-opacity="0.25"/>
<circle cx="1705.33" cy="253.333" r="2" fill="#E6FAFA" fill-opacity="0.25"/>
<circle cx="1762.67" cy="253.333" r="2" fill="#E6FAFA" fill-opacity="0.25"/>
<circle cx="1820" cy="253.333" r="2" fill="#E6FAFA" fill-opacity="0.25"/>
<circle cx="1877.33" cy="253.333" r="2" fill="#E6FAFA" fill-opacity="0.25"/>
<circle cx="42.6667" cy="310.667" r="2" fill="#E6FAFA" fill-opacity="0.25"/>
<circle cx="100" cy="310.667" r="2" fill="#E6FAFA" fill-opacity="0.25"/>
<circle cx="157.333" cy="310.667" r="2" fill="#E6FAFA" fill-opacity="0.25"/>
<circle cx="214.667" cy="310.667" r="2" fill="#E6FAFA" fill-opacity="0.25"/>
<circle cx="272" cy="310.667" r="2" fill="#E6FAFA" fill-opacity="0.25"/>
<circle cx="329.333" cy="310.667" r="2" fill="#E6FAFA" fill-opacity="0.25"/>
<circle cx="386.667" cy="310.667" r="2" fill="#E6FAFA" fill-opacity="0.25"/>
<circle cx="444" cy="310.667" r="2" fill="#E6FAFA" fill-opacity="0.25"/>
<circle cx="501.333" cy="310.667" r="2" fill="#E6FAFA" fill-opacity="0.25"/>
<circle cx="558.667" cy="310.667" r="2" fill="#E6FAFA" fill-opacity="0.25"/>
<circle cx="616" cy="310.667" r="2" fill="#E6FAFA" fill-opacity="0.25"/>
<circle cx="673.333" cy="310.667" r="2" fill="#E6FAFA" fill-opacity="0.25"/>
<circle cx="730.667" cy="310.667" r="2" fill="#E6FAFA" fill-opacity="0.25"/>
<circle cx="788" cy="310.667" r="2" fill="#E6FAFA" fill-opacity="0.25"/>
<circle cx="845.333" cy="310.667" r="2" fill="#E6FAFA" fill-opacity="0.25"/>
<circle cx="902.667" cy="310.667" r="2" fill="#E6FAFA" fill-opacity="0.25"/>
<circle cx="960" cy="310.667" r="2" fill="#E6FAFA" fill-opacity="0.25"/>
<circle cx="1017.33" cy="310.667" r="2" fill="#E6FAFA" fill-opacity="0.25"/>
<circle cx="1074.67" cy="310.667" r="2" fill="#E6FAFA" fill-opacity="0.25"/>
<circle cx="1132" cy="310.667" r="2" fill="#E6FAFA" fill-opacity="0.25"/>
<circle cx="1189.33" cy="310.667" r="2" fill="#E6FAFA" fill-opacity="0.25"/>
<circle cx="1246.67" cy="310.667" r="2" fill="#E6FAFA" fill-opacity="0.25"/>
<circle cx="1304" cy="310.667" r="2" fill="#E6FAFA" fill-opacity="0.25"/>
<circle cx="1361.33" cy="310.667" r="2" fill="#E6FAFA" fill-opacity="0.25"/>
<circle cx="1418.67" cy="310.667" r="2" fill="#E6FAFA" fill-opacity="0.25"/>
<circle cx="1476" cy="310.667" r="2" fill="#E6FAFA" fill-opacity="0.25"/>
<circle cx="1533.33" cy="310.667" r="2" fill="#E6FAFA" fill-opacity="0.25"/>
<circle cx="1590.67" cy="310.667" r="2" fill="#E6FAFA" fill-opacity="0.25"/>
<circle cx="1648" cy="310.667" r="2" fill="#E6FAFA" fill-opacity="0.25"/>
<circle cx="1705.33" cy="310.667" r="2" fill="#E6FAFA" fill-opacity="0.25"/>
<circle cx="1762.67" cy="310.667" r="2" fill="#E6FAFA" fill-opacity="0.25"/>
<circle cx="1820" cy="310.667" r="2" fill="#E6FAFA" fill-opacity="0.25"/>
<circle cx="1877.33" cy="310.667" r="2" fill="#E6FAFA" fill-opacity="0.25"/>
<circle cx="42.6667" cy="368" r="2" fill="#E6FAFA" fill-opacity="0.25"/>
<circle cx="100" cy="368" r="2" fill="#E6FAFA" fill-opacity="0.25"/>
<circle cx="157.333" cy="368" r="2" fill="#E6FAFA" fill-opacity="0.25"/>
<circle cx="214.667" cy="368" r="2" fill="#E6FAFA" fill-opacity="0.25"/>
<circle cx="272" cy="368" r="2" fill="#E6FAFA" fill-opacity="0.25"/>
<circle cx="329.333" cy="368" r="2" fill="#E6FAFA" fill-opacity="0.25"/>
<circle cx="386.667" cy="368" r="2" fill="#E6FAFA" fill-opacity="0.25"/>
<circle cx="444" cy="368" r="2" fill="#E6FAFA" fill-opacity="0.25"/>
<circle cx="501.333" cy="368" r="2" fill="#E6FAFA" fill-opacity="0.25"/>
<circle cx="558.667" cy="368" r="2" fill="#E6FAFA" fill-opacity="0.25"/>
<circle cx="616" cy="368" r="2" fill="#E6FAFA" fill-opacity="0.25"/>
<circle cx="673.333" cy="368" r="2" fill="#E6FAFA" fill-opacity="0.25"/>
<circle cx="730.667" cy="368" r="2" fill="#E6FAFA" fill-opacity="0.25"/>
<circle cx="788" cy="368" r="2" fill="#E6FAFA" fill-opacity="0.25"/>
<circle cx="845.333" cy="368" r="2" fill="#E6FAFA" fill-opacity="0.25"/>
<circle cx="902.667" cy="368" r="2" fill="#E6FAFA" fill-opacity="0.25"/>
<circle cx="960" cy="368" r="2" fill="#E6FAFA" fill-opacity="0.25"/>
<circle cx="1017.33" cy="368" r="2" fill="#E6FAFA" fill-opacity="0.25"/>
<circle cx="1074.67" cy="368" r="2" fill="#E6FAFA" fill-opacity="0.25"/>
<circle cx="1132" cy="368" r="2" fill="#E6FAFA" fill-opacity="0.25"/>
<circle cx="1189.33" cy="368" r="2" fill="#E6FAFA" fill-opacity="0.25"/>
<circle cx="1246.67" cy="368" r="2" fill="#E6FAFA" fill-opacity="0.25"/>
<circle cx="1304" cy="368" r="2" fill="#E6FAFA" fill-opacity="0.25"/>
<circle cx="1361.33" cy="368" r="2" fill="#E6FAFA" fill-opacity="0.25"/>
<circle cx="1418.67" cy="368" r="2" fill="#E6FAFA" fill-opacity="0.25"/>
<circle cx="1476" cy="368" r="2" fill="#E6FAFA" fill-opacity="0.25"/>
<circle cx="1533.33" cy="368" r="2" fill="#E6FAFA" fill-opacity="0.25"/>
<circle cx="1590.67" cy="368" r="2" fill="#E6FAFA" fill-opacity="0.25"/>
<circle cx="1648" cy="368" r="2" fill="#E6FAFA" fill-opacity="0.25"/>
<circle cx="1705.33" cy="368" r="2" fill="#E6FAFA" fill-opacity="0.25"/>
<circle cx="1762.67" cy="368" r="2" fill="#E6FAFA" fill-opacity="0.25"/>
<circle cx="1820" cy="368" r="2" fill="#E6FAFA" fill-opacity="0.25"/>
<circle cx="1877.33" cy="368" r="2" fill="#E6FAFA" fill-opacity="0.25"/>
<circle cx="42.6667" cy="425.333" r="2" fill="#E6FAFA" fill-opacity="0.25"/>
<circle cx="100" cy="425.333" r="2" fill="#E6FAFA" fill-opacity="0.25"/>
<circle cx="157.333" cy="425.333" r="2" fill="#E6FAFA" fill-opacity="0.25"/>
<circle cx="214.667" cy="425.333" r="2" fill="#E6FAFA" fill-opacity="0.25"/>
<circle cx="272" cy="425.333" r="2" fill="#E6FAFA" fill-opacity="0.25"/>
<circle cx="329.333" cy="425.333" r="2" fill="#E6FAFA" fill-opacity="0.25"/>
<circle cx="386.667" cy="425.333" r="2" fill="#E6FAFA" fill-opacity="0.25"/>
<circle cx="444" cy="425.333" r="2" fill="#E6FAFA" fill-opacity="0.25"/>
<circle cx="501.333" cy="425.333" r="2" fill="#E6FAFA" fill-opacity="0.25"/>
<circle cx="558.667" cy="425.333" r="2" fill="#E6FAFA" fill-opacity="0.25"/>
<circle cx="616" cy="425.333" r="2" fill="#E6FAFA" fill-opacity="0.25"/>
<circle cx="673.333" cy="425.333" r="2" fill="#E6FAFA" fill-opacity="0.25"/>
<circle cx="730.667" cy="425.333" r="2" fill="#E6FAFA" fill-opacity="0.25"/>
<circle cx="788" cy="425.333" r="2" fill="#E6FAFA" fill-opacity="0.25"/>
<circle cx="845.333" cy="425.333" r="2" fill="#E6FAFA" fill-opacity="0.25"/>
<circle cx="902.667" cy="425.333" r="2" fill="#E6FAFA" fill-opacity="0.25"/>
<circle cx="960" cy="425.333" r="2" fill="#E6FAFA" fill-opacity="0.25"/>
<circle cx="1017.33" cy="425.333" r="2" fill="#E6FAFA" fill-opacity="0.25"/>
<circle cx="1074.67" cy="425.333" r="2" fill="#E6FAFA" fill-opacity="0.25"/>
<circle cx="1132" cy="425.333" r="2" fill="#E6FAFA" fill-opacity="0.25"/>
<circle cx="1189.33" cy="425.333" r="2" fill="#E6FAFA" fill-opacity="0.25"/>
<circle cx="1246.67" cy="425.333" r="2" fill="#E6FAFA" fill-opacity="0.25"/>
<circle cx="1304" cy="425.333" r="2" fill="#E6FAFA" fill-opacity="0.25"/>
<circle cx="1361.33" cy="425.333" r="2" fill="#E6FAFA" fill-opacity="0.25"/>
<circle cx="1418.67" cy="425.333" r="2" fill="#E6FAFA" fill-opacity="0.25"/>
<circle cx="1476" cy="425.333" r="2" fill="#E6FAFA" fill-opacity="0.25"/>
<circle cx="1533.33" cy="425.333" r="2" fill="#E6FAFA" fill-opacity="0.25"/>
<circle cx="1590.67" cy="425.333" r="2" fill="#E6FAFA" fill-opacity="0.25"/>
<circle cx="1648" cy="425.333" r="2" fill="#E6FAFA" fill-opacity="0.25"/>
<circle cx="1705.33" cy="425.333" r="2" fill="#E6FAFA" fill-opacity="0.25"/>
<circle cx="1762.67" cy="425.333" r="2" fill="#E6FAFA" fill-opacity="0.25"/>
<circle cx="1820" cy="425.333" r="2" fill="#E6FAFA" fill-opacity="0.25"/>
<circle cx="1877.33" cy="425.333" r="2" fill="#E6FAFA" fill-opacity="0.25"/>
<circle cx="42.6667" cy="482.667" r="2" fill="#E6FAFA" fill-opacity="0.25"/>
<circle cx="100" cy="482.667" r="2" fill="#E6FAFA" fill-opacity="0.25"/>
<circle cx="157.333" cy="482.667" r="2" fill="#E6FAFA" fill-opacity="0.25"/>
<circle cx="214.667" cy="482.667" r="2" fill="#E6FAFA" fill-opacity="0.25"/>
<circle cx="272" cy="482.667" r="2" fill="#E6FAFA" fill-opacity="0.25"/>
<circle cx="329.333" cy="482.667" r="2" fill="#E6FAFA" fill-opacity="0.25"/>
<circle cx="386.667" cy="482.667" r="2" fill="#E6FAFA" fill-opacity="0.25"/>
<circle cx="444" cy="482.667" r="2" fill="#E6FAFA" fill-opacity="0.25"/>
<circle cx="501.333" cy="482.667" r="2" fill="#E6FAFA" fill-opacity="0.25"/>
<circle cx="558.667" cy="482.667" r="2" fill="#E6FAFA" fill-opacity="0.25"/>
<circle cx="616" cy="482.667" r="2" fill="#E6FAFA" fill-opacity="0.25"/>
<circle cx="673.333" cy="482.667" r="2" fill="#E6FAFA" fill-opacity="0.25"/>
<circle cx="730.667" cy="482.667" r="2" fill="#E6FAFA" fill-opacity="0.25"/>
<circle cx="788" cy="482.667" r="2" fill="#E6FAFA" fill-opacity="0.25"/>
<circle cx="845.333" cy="482.667" r="2" fill="#E6FAFA" fill-opacity="0.25"/>
<circle cx="902.667" cy="482.667" r="2" fill="#E6FAFA" fill-opacity="0.25"/>
<circle cx="960" cy="482.667" r="2" fill="#E6FAFA" fill-opacity="0.25"/>
<circle cx="1017.33" cy="482.667" r="2" fill="#E6FAFA" fill-opacity="0.25"/>
<circle cx="1074.67" cy="482.667" r="2" fill="#E6FAFA" fill-opacity="0.25"/>
<circle cx="1132" cy="482.667" r="2" fill="#E6FAFA" fill-opacity="0.25"/>
<circle cx="1189.33" cy="482.667" r="2" fill="#E6FAFA" fill-opacity="0.25"/>
<circle cx="1246.67" cy="482.667" r="2" fill="#E6FAFA" fill-opacity="0.25"/>
<circle cx="1304" cy="482.667" r="2" fill="#E6FAFA" fill-opacity="0.25"/>
<circle cx="1361.33" cy="482.667" r="2" fill="#E6FAFA" fill-opacity="0.25"/>
<circle cx="1418.67" cy="482.667" r="2" fill="#E6FAFA" fill-opacity="0.25"/>
<circle cx="1476" cy="482.667" r="2" fill="#E6FAFA" fill-opacity="0.25"/>
<circle cx="1533.33" cy="482.667" r="2" fill="#E6FAFA" fill-opacity="0.25"/>
<circle cx="1590.67" cy="482.667" r="2" fill="#E6FAFA" fill-opacity="0.25"/>
<circle cx="1648" cy="482.667" r="2" fill="#E6FAFA" fill-opacity="0.25"/>
<circle cx="1705.33" cy="482.667" r="2" fill="#E6FAFA" fill-opacity="0.25"/>
<circle cx="1762.67" cy="482.667" r="2" fill="#E6FAFA" fill-opacity="0.25"/>
<circle cx="1820" cy="482.667" r="2" fill="#E6FAFA" fill-opacity="0.25"/>
<circle cx="1877.33" cy="482.667" r="2" fill="#E6FAFA" fill-opacity="0.25"/>
<circle cx="42.6667" cy="540" r="2" fill="#E6FAFA" fill-opacity="0.25"/>
<circle cx="100" cy="540" r="2" fill="#E6FAFA" fill-opacity="0.25"/>
<circle cx="157.333" cy="540" r="2" fill="#E6FAFA" fill-opacity="0.25"/>
<circle cx="214.667" cy="540" r="2" fill="#E6FAFA" fill-opacity="0.25"/>
<circle cx="272" cy="540" r="2" fill="#E6FAFA" fill-opacity="0.25"/>
<circle cx="329.333" cy="540" r="2" fill="#E6FAFA" fill-opacity="0.25"/>
<circle cx="386.667" cy="540" r="2" fill="#E6FAFA" fill-opacity="0.25"/>
<circle cx="444" cy="540" r="2" fill="#E6FAFA" fill-opacity="0.25"/>
<circle cx="501.333" cy="540" r="2" fill="#E6FAFA" fill-opacity="0.25"/>
<circle cx="558.667" cy="540" r="2" fill="#E6FAFA" fill-opacity="0.25"/>
<circle cx="616" cy="540" r="2" fill="#E6FAFA" fill-opacity="0.25"/>
<circle cx="673.333" cy="540" r="2" fill="#E6FAFA" fill-opacity="0.25"/>
<circle cx="730.667" cy="540" r="2" fill="#E6FAFA" fill-opacity="0.25"/>
<circle cx="788" cy="540" r="2" fill="#E6FAFA" fill-opacity="0.25"/>
<circle cx="845.333" cy="540" r="2" fill="#E6FAFA" fill-opacity="0.25"/>
<circle cx="902.667" cy="540" r="2" fill="#E6FAFA" fill-opacity="0.25"/>
<circle cx="960" cy="540" r="2" fill="#E6FAFA" fill-opacity="0.25"/>
<circle cx="1017.33" cy="540" r="2" fill="#E6FAFA" fill-opacity="0.25"/>
<circle cx="1074.67" cy="540" r="2" fill="#E6FAFA" fill-opacity="0.25"/>
<circle cx="1132" cy="540" r="2" fill="#E6FAFA" fill-opacity="0.25"/>
<circle cx="1189.33" cy="540" r="2" fill="#E6FAFA" fill-opacity="0.25"/>
<circle cx="1246.67" cy="540" r="2" fill="#E6FAFA" fill-opacity="0.25"/>
<circle cx="1304" cy="540" r="2" fill="#E6FAFA" fill-opacity="0.25"/>
<circle cx="1361.33" cy="540" r="2" fill="#E6FAFA" fill-opacity="0.25"/>
<circle cx="1418.67" cy="540" r="2" fill="#E6FAFA" fill-opacity="0.25"/>
<circle cx="1476" cy="540" r="2" fill="#E6FAFA" fill-opacity="0.25"/>
<circle cx="1533.33" cy="540" r="2" fill="#E6FAFA" fill-opacity="0.25"/>
<circle cx="1590.67" cy="540" r="2" fill="#E6FAFA" fill-opacity="0.25"/>
<circle cx="1648" cy="540" r="2" fill="#E6FAFA" fill-opacity="0.25"/>
<circle cx="1705.33" cy="540" r="2" fill="#E6FAFA" fill-opacity="0.25"/>
<circle cx="1762.67" cy="540" r="2" fill="#E6FAFA" fill-opacity="0.25"/>
<circle cx="1820" cy="540" r="2" fill="#E6FAFA" fill-opacity="0.25"/>
<circle cx="1877.33" cy="540" r="2" fill="#E6FAFA" fill-opacity="0.25"/>
<circle cx="42.6667" cy="597.333" r="2" fill="#E6FAFA" fill-opacity="0.25"/>
<circle cx="100" cy="597.333" r="2" fill="#E6FAFA" fill-opacity="0.25"/>
<circle cx="157.333" cy="597.333" r="2" fill="#E6FAFA" fill-opacity="0.25"/>
<circle cx="214.667" cy="597.333" r="2" fill="#E6FAFA" fill-opacity="0.25"/>
<circle cx="272" cy="597.333" r="2" fill="#E6FAFA" fill-opacity="0.25"/>
<circle cx="329.333" cy="597.333" r="2" fill="#E6FAFA" fill-opacity="0.25"/>
<circle cx="386.667" cy="597.333" r="2" fill="#E6FAFA" fill-opacity="0.25"/>
<circle cx="444" cy="597.333" r="2" fill="#E6FAFA" fill-opacity="0.25"/>
<circle cx="501.333" cy="597.333" r="2" fill="#E6FAFA" fill-opacity="0.25"/>
<circle cx="558.667" cy="597.333" r="2" fill="#E6FAFA" fill-opacity="0.25"/>
<circle cx="616" cy="597.333" r="2" fill="#E6FAFA" fill-opacity="0.25"/>
<circle cx="673.333" cy="597.333" r="2" fill="#E6FAFA" fill-opacity="0.25"/>
<circle cx="730.667" cy="597.333" r="2" fill="#E6FAFA" fill-opacity="0.25"/>
<circle cx="788" cy="597.333" r="2" fill="#E6FAFA" fill-opacity="0.25"/>
<circle cx="845.333" cy="597.333" r="2" fill="#E6FAFA" fill-opacity="0.25"/>
<circle cx="902.667" cy="597.333" r="2" fill="#E6FAFA" fill-opacity="0.25"/>
<circle cx="960" cy="597.333" r="2" fill="#E6FAFA" fill-opacity="0.25"/>
<circle cx="1017.33" cy="597.333" r="2" fill="#E6FAFA" fill-opacity="0.25"/>
<circle cx="1074.67" cy="597.333" r="2" fill="#E6FAFA" fill-opacity="0.25"/>
<circle cx="1132" cy="597.333" r="2" fill="#E6FAFA" fill-opacity="0.25"/>
<circle cx="1189.33" cy="597.333" r="2" fill="#E6FAFA" fill-opacity="0.25"/>
<circle cx="1246.67" cy="597.333" r="2" fill="#E6FAFA" fill-opacity="0.25"/>
<circle cx="1304" cy="597.333" r="2" fill="#E6FAFA" fill-opacity="0.25"/>
<circle cx="1361.33" cy="597.333" r="2" fill="#E6FAFA" fill-opacity="0.25"/>
<circle cx="1418.67" cy="597.333" r="2" fill="#E6FAFA" fill-opacity="0.25"/>
<circle cx="1476" cy="597.333" r="2" fill="#E6FAFA" fill-opacity="0.25"/>
<circle cx="1533.33" cy="597.333" r="2" fill="#E6FAFA" fill-opacity="0.25"/>
<circle cx="1590.67" cy="597.333" r="2" fill="#E6FAFA" fill-opacity="0.25"/>
<circle cx="1648" cy="597.333" r="2" fill="#E6FAFA" fill-opacity="0.25"/>
<circle cx="1705.33" cy="597.333" r="2" fill="#E6FAFA" fill-opacity="0.25"/>
<circle cx="1762.67" cy="597.333" r="2" fill="#E6FAFA" fill-opacity="0.25"/>
<circle cx="1820" cy="597.333" r="2" fill="#E6FAFA" fill-opacity="0.25"/>
<circle cx="1877.33" cy="597.333" r="2" fill="#E6FAFA" fill-opacity="0.25"/>
<circle cx="42.6667" cy="654.667" r="2" fill="#E6FAFA" fill-opacity="0.25"/>
<circle cx="100" cy="654.667" r="2" fill="#E6FAFA" fill-opacity="0.25"/>
<circle cx="157.333" cy="654.667" r="2" fill="#E6FAFA" fill-opacity="0.25"/>
<circle cx="214.667" cy="654.667" r="2" fill="#E6FAFA" fill-opacity="0.25"/>
<circle cx="272" cy="654.667" r="2" fill="#E6FAFA" fill-opacity="0.25"/>
<circle cx="329.333" cy="654.667" r="2" fill="#E6FAFA" fill-opacity="0.25"/>
<circle cx="386.667" cy="654.667" r="2" fill="#E6FAFA" fill-opacity="0.25"/>
<circle cx="444" cy="654.667" r="2" fill="#E6FAFA" fill-opacity="0.25"/>
<circle cx="501.333" cy="654.667" r="2" fill="#E6FAFA" fill-opacity="0.25"/>
<circle cx="558.667" cy="654.667" r="2" fill="#E6FAFA" fill-opacity="0.25"/>
<circle cx="616" cy="654.667" r="2" fill="#E6FAFA" fill-opacity="0.25"/>
<circle cx="673.333" cy="654.667" r="2" fill="#E6FAFA" fill-opacity="0.25"/>
<circle cx="730.667" cy="654.667" r="2" fill="#E6FAFA" fill-opacity="0.25"/>
<circle cx="788" cy="654.667" r="2" fill="#E6FAFA" fill-opacity="0.25"/>
<circle cx="845.333" cy="654.667" r="2" fill="#E6FAFA" fill-opacity="0.25"/>
<circle cx="902.667" cy="654.667" r="2" fill="#E6FAFA" fill-opacity="0.25"/>
<circle cx="960" cy="654.667" r="2" fill="#E6FAFA" fill-opacity="0.25"/>
<circle cx="1017.33" cy="654.667" r="2" fill="#E6FAFA" fill-opacity="0.25"/>
<circle cx="1074.67" cy="654.667" r="2" fill="#E6FAFA" fill-opacity="0.25"/>
<circle cx="1132" cy="654.667" r="2" fill="#E6FAFA" fill-opacity="0.25"/>
<circle cx="1189.33" cy="654.667" r="2" fill="#E6FAFA" fill-opacity="0.25"/>
<circle cx="1246.67" cy="654.667" r="2" fill="#E6FAFA" fill-opacity="0.25"/>
<circle cx="1304" cy="654.667" r="2" fill="#E6FAFA" fill-opacity="0.25"/>
<circle cx="1361.33" cy="654.667" r="2" fill="#E6FAFA" fill-opacity="0.25"/>
<circle cx="1418.67" cy="654.667" r="2" fill="#E6FAFA" fill-opacity="0.25"/>
<circle cx="1476" cy="654.667" r="2" fill="#E6FAFA" fill-opacity="0.25"/>
<circle cx="1533.33" cy="654.667" r="2" fill="#E6FAFA" fill-opacity="0.25"/>
<circle cx="1590.67" cy="654.667" r="2" fill="#E6FAFA" fill-opacity="0.25"/>
<circle cx="1648" cy="654.667" r="2" fill="#E6FAFA" fill-opacity="0.25"/>
<circle cx="1705.33" cy="654.667" r="2" fill="#E6FAFA" fill-opacity="0.25"/>
<circle cx="1762.67" cy="654.667" r="2" fill="#E6FAFA" fill-opacity="0.25"/>
<circle cx="1820" cy="654.667" r="2" fill="#E6FAFA" fill-opacity="0.25"/>
<circle cx="1877.33" cy="654.667" r="2" fill="#E6FAFA" fill-opacity="0.25"/>
<circle cx="42.6667" cy="712" r="2" fill="#E6FAFA" fill-opacity="0.25"/>
<circle cx="100" cy="712" r="2" fill="#E6FAFA" fill-opacity="0.25"/>
<circle cx="157.333" cy="712" r="2" fill="#E6FAFA" fill-opacity="0.25"/>
<circle cx="214.667" cy="712" r="2" fill="#E6FAFA" fill-opacity="0.25"/>
<circle cx="272" cy="712" r="2" fill="#E6FAFA" fill-opacity="0.25"/>
<circle cx="329.333" cy="712" r="2" fill="#E6FAFA" fill-opacity="0.25"/>
<circle cx="386.667" cy="712" r="2" fill="#E6FAFA" fill-opacity="0.25"/>
<circle cx="444" cy="712" r="2" fill="#E6FAFA" fill-opacity="0.25"/>
<circle cx="501.333" cy="712" r="2" fill="#E6FAFA" fill-opacity="0.25"/>
<circle cx="558.667" cy="712" r="2" fill="#E6FAFA" fill-opacity="0.25"/>
<circle cx="616" cy="712" r="2" fill="#E6FAFA" fill-opacity="0.25"/>
<circle cx="673.333" cy="712" r="2" fill="#E6FAFA" fill-opacity="0.25"/>
<circle cx="730.667" cy="712" r="2" fill="#E6FAFA" fill-opacity="0.25"/>
<circle cx="788" cy="712" r="2" fill="#E6FAFA" fill-opacity="0.25"/>
<circle cx="845.333" cy="712" r="2" fill="#E6FAFA" fill-opacity="0.25"/>
<circle cx="902.667" cy="712" r="2" fill="#E6FAFA" fill-opacity="0.25"/>
<circle cx="960" cy="712" r="2" fill="#E6FAFA" fill-opacity="0.25"/>
<circle cx="1017.33" cy="712" r="2" fill="#E6FAFA" fill-opacity="0.25"/>
<circle cx="1074.67" cy="712" r="2" fill="#E6FAFA" fill-opacity="0.25"/>
<circle cx="1132" cy="712" r="2" fill="#E6FAFA" fill-opacity="0.25"/>
<circle cx="1189.33" cy="712" r="2" fill="#E6FAFA" fill-opacity="0.25"/>
<circle cx="1246.67" cy="712" r="2" fill="#E6FAFA" fill-opacity="0.25"/>
<circle cx="1304" cy="712" r="2" fill="#E6FAFA" fill-opacity="0.25"/>
<circle cx="1361.33" cy="712" r="2" fill="#E6FAFA" fill-opacity="0.25"/>
<circle cx="1418.67" cy="712" r="2" fill="#E6FAFA" fill-opacity="0.25"/>
<circle cx="1476" cy="712" r="2" fill="#E6FAFA" fill-opacity="0.25"/>
<circle cx="1533.33" cy="712" r="2" fill="#E6FAFA" fill-opacity="0.25"/>
<circle cx="1590.67" cy="712" r="2" fill="#E6FAFA" fill-opacity="0.25"/>
<circle cx="1648" cy="712" r="2" fill="#E6FAFA" fill-opacity="0.25"/>
<circle cx="1705.33" cy="712" r="2" fill="#E6FAFA" fill-opacity="0.25"/>
<circle cx="1762.67" cy="712" r="2" fill="#E6FAFA" fill-opacity="0.25"/>
<circle cx="1820" cy="712" r="2" fill="#E6FAFA" fill-opacity="0.25"/>
<circle cx="1877.33" cy="712" r="2" fill="#E6FAFA" fill-opacity="0.25"/>
<circle cx="42.6667" cy="769.333" r="2" fill="#E6FAFA" fill-opacity="0.25"/>
<circle cx="100" cy="769.333" r="2" fill="#E6FAFA" fill-opacity="0.25"/>
<circle cx="157.333" cy="769.333" r="2" fill="#E6FAFA" fill-opacity="0.25"/>
<circle cx="214.667" cy="769.333" r="2" fill="#E6FAFA" fill-opacity="0.25"/>
<circle cx="272" cy="769.333" r="2" fill="#E6FAFA" fill-opacity="0.25"/>
<circle cx="329.333" cy="769.333" r="2" fill="#E6FAFA" fill-opacity="0.25"/>
<circle cx="386.667" cy="769.333" r="2" fill="#E6FAFA" fill-opacity="0.25"/>
<circle cx="444" cy="769.333" r="2" fill="#E6FAFA" fill-opacity="0.25"/>
<circle cx="501.333" cy="769.333" r="2" fill="#E6FAFA" fill-opacity="0.25"/>
<circle cx="558.667" cy="769.333" r="2" fill="#E6FAFA" fill-opacity="0.25"/>
<circle cx="616" cy="769.333" r="2" fill="#E6FAFA" fill-opacity="0.25"/>
<circle cx="673.333" cy="769.333" r="2" fill="#E6FAFA" fill-opacity="0.25"/>
<circle cx="730.667" cy="769.333" r="2" fill="#E6FAFA" fill-opacity="0.25"/>
<circle cx="788" cy="769.333" r="2" fill="#E6FAFA" fill-opacity="0.25"/>
<circle cx="845.333" cy="769.333" r="2" fill="#E6FAFA" fill-opacity="0.25"/>
<circle cx="902.667" cy="769.333" r="2" fill="#E6FAFA" fill-opacity="0.25"/>
<circle cx="960" cy="769.333" r="2" fill="#E6FAFA" fill-opacity="0.25"/>
<circle cx="1017.33" cy="769.333" r="2" fill="#E6FAFA" fill-opacity="0.25"/>
<circle cx="1074.67" cy="769.333" r="2" fill="#E6FAFA" fill-opacity="0.25"/>
<circle cx="1132" cy="769.333" r="2" fill="#E6FAFA" fill-opacity="0.25"/>
<circle cx="1189.33" cy="769.333" r="2" fill="#E6FAFA" fill-opacity="0.25"/>
<circle cx="1246.67" cy="769.333" r="2" fill="#E6FAFA" fill-opacity="0.25"/>
<circle cx="1304" cy="769.333" r="2" fill="#E6FAFA" fill-opacity="0.25"/>
<circle cx="1361.33" cy="769.333" r="2" fill="#E6FAFA" fill-opacity="0.25"/>
<circle cx="1418.67" cy="769.333" r="2" fill="#E6FAFA" fill-opacity="0.25"/>
<circle cx="1476" cy="769.333" r="2" fill="#E6FAFA" fill-opacity="0.25"/>
<circle cx="1533.33" cy="769.333" r="2" fill="#E6FAFA" fill-opacity="0.25"/>
<circle cx="1590.67" cy="769.333" r="2" fill="#E6FAFA" fill-opacity="0.25"/>
<circle cx="1648" cy="769.333" r="2" fill="#E6FAFA" fill-opacity="0.25"/>
<circle cx="1705.33" cy="769.333" r="2" fill="#E6FAFA" fill-opacity="0.25"/>
<circle cx="1762.67" cy="769.333" r="2" fill="#E6FAFA" fill-opacity="0.25"/>
<circle cx="1820" cy="769.333" r="2" fill="#E6FAFA" fill-opacity="0.25"/>
<circle cx="1877.33" cy="769.333" r="2" fill="#E6FAFA" fill-opacity="0.25"/>
<circle cx="42.6667" cy="826.667" r="2" fill="#E6FAFA" fill-opacity="0.25"/>
<circle cx="100" cy="826.667" r="2" fill="#E6FAFA" fill-opacity="0.25"/>
<circle cx="157.333" cy="826.667" r="2" fill="#E6FAFA" fill-opacity="0.25"/>
<circle cx="214.667" cy="826.667" r="2" fill="#E6FAFA" fill-opacity="0.25"/>
<circle cx="272" cy="826.667" r="2" fill="#E6FAFA" fill-opacity="0.25"/>
<circle cx="329.333" cy="826.667" r="2" fill="#E6FAFA" fill-opacity="0.25"/>
<circle cx="386.667" cy="826.667" r="2" fill="#E6FAFA" fill-opacity="0.25"/>
<circle cx="444" cy="826.667" r="2" fill="#E6FAFA" fill-opacity="0.25"/>
<circle cx="501.333" cy="826.667" r="2" fill="#E6FAFA" fill-opacity="0.25"/>
<circle cx="558.667" cy="826.667" r="2" fill="#E6FAFA" fill-opacity="0.25"/>
<circle cx="616" cy="826.667" r="2" fill="#E6FAFA" fill-opacity="0.25"/>
<circle cx="673.333" cy="826.667" r="2" fill="#E6FAFA" fill-opacity="0.25"/>
<circle cx="730.667" cy="826.667" r="2" fill="#E6FAFA" fill-opacity="0.25"/>
<circle cx="788" cy="826.667" r="2" fill="#E6FAFA" fill-opacity="0.25"/>
<circle cx="845.333" cy="826.667" r="2" fill="#E6FAFA" fill-opacity="0.25"/>
<circle cx="902.667" cy="826.667" r="2" fill="#E6FAFA" fill-opacity="0.25"/>
<circle cx="960" cy="826.667" r="2" fill="#E6FAFA" fill-opacity="0.25"/>
<circle cx="1017.33" cy="826.667" r="2" fill="#E6FAFA" fill-opacity="0.25"/>
<circle cx="1074.67" cy="826.667" r="2" fill="#E6FAFA" fill-opacity="0.25"/>
<circle cx="1132" cy="826.667" r="2" fill="#E6FAFA" fill-opacity="0.25"/>
<circle cx="1189.33" cy="826.667" r="2" fill="#E6FAFA" fill-opacity="0.25"/>
<circle cx="1246.67" cy="826.667" r="2" fill="#E6FAFA" fill-opacity="0.25"/>
<circle cx="1304" cy="826.667" r="2" fill="#E6FAFA" fill-opacity="0.25"/>
<circle cx="1361.33" cy="826.667" r="2" fill="#E6FAFA" fill-opacity="0.25"/>
<circle cx="1418.67" cy="826.667" r="2" fill="#E6FAFA" fill-opacity="0.25"/>
<circle cx="1476" cy="826.667" r="2" fill="#E6FAFA" fill-opacity="0.25"/>
<circle cx="1533.33" cy="826.667" r="2" fill="#E6FAFA" fill-opacity="0.25"/>
<circle cx="1590.67" cy="826.667" r="2" fill="#E6FAFA" fill-opacity="0.25"/>
<circle cx="1648" cy="826.667" r="2" fill="#E6FAFA" fill-opacity="0.25"/>
<circle cx="1705.33" cy="826.667" r="2" fill="#E6FAFA" fill-opacity="0.25"/>
<circle cx="1762.67" cy="826.667" r="2" fill="#E6FAFA" fill-opacity="0.25"/>
<circle cx="1820" cy="826.667" r="2" fill="#E6FAFA" fill-opacity="0.25"/>
<circle cx="1877.33" cy="826.667" r="2" fill="#E6FAFA" fill-opacity="0.25"/>
<circle cx="42.6667" cy="884" r="2" fill="#E6FAFA" fill-opacity="0.25"/>
<circle cx="100" cy="884" r="2" fill="#E6FAFA" fill-opacity="0.25"/>
<circle cx="157.333" cy="884" r="2" fill="#E6FAFA" fill-opacity="0.25"/>
<circle cx="214.667" cy="884" r="2" fill="#E6FAFA" fill-opacity="0.25"/>
<circle cx="272" cy="884" r="2" fill="#E6FAFA" fill-opacity="0.25"/>
<circle cx="329.333" cy="884" r="2" fill="#E6FAFA" fill-opacity="0.25"/>
<circle cx="386.667" cy="884" r="2" fill="#E6FAFA" fill-opacity="0.25"/>
<circle cx="444" cy="884" r="2" fill="#E6FAFA" fill-opacity="0.25"/>
<circle cx="501.333" cy="884" r="2" fill="#E6FAFA" fill-opacity="0.25"/>
<circle cx="558.667" cy="884" r="2" fill="#E6FAFA" fill-opacity="0.25"/>
<circle cx="616" cy="884" r="2" fill="#E6FAFA" fill-opacity="0.25"/>
<circle cx="673.333" cy="884" r="2" fill="#E6FAFA" fill-opacity="0.25"/>
<circle cx="730.667" cy="884" r="2" fill="#E6FAFA" fill-opacity="0.25"/>
<circle cx="788" cy="884" r="2" fill="#E6FAFA" fill-opacity="0.25"/>
<circle cx="845.333" cy="884" r="2" fill="#E6FAFA" fill-opacity="0.25"/>
<circle cx="902.667" cy="884" r="2" fill="#E6FAFA" fill-opacity="0.25"/>
<circle cx="960" cy="884" r="2" fill="#E6FAFA" fill-opacity="0.25"/>
<circle cx="1017.33" cy="884" r="2" fill="#E6FAFA" fill-opacity="0.25"/>
<circle cx="1074.67" cy="884" r="2" fill="#E6FAFA" fill-opacity="0.25"/>
<circle cx="1132" cy="884" r="2" fill="#E6FAFA" fill-opacity="0.25"/>
<circle cx="1189.33" cy="884" r="2" fill="#E6FAFA" fill-opacity="0.25"/>
<circle cx="1246.67" cy="884" r="2" fill="#E6FAFA" fill-opacity="0.25"/>
<circle cx="1304" cy="884" r="2" fill="#E6FAFA" fill-opacity="0.25"/>
<circle cx="1361.33" cy="884" r="2" fill="#E6FAFA" fill-opacity="0.25"/>
<circle cx="1418.67" cy="884" r="2" fill="#E6FAFA" fill-opacity="0.25"/>
<circle cx="1476" cy="884" r="2" fill="#E6FAFA" fill-opacity="0.25"/>
<circle cx="1533.33" cy="884" r="2" fill="#E6FAFA" fill-opacity="0.25"/>
<circle cx="1590.67" cy="884" r="2" fill="#E6FAFA" fill-opacity="0.25"/>
<circle cx="1648" cy="884" r="2" fill="#E6FAFA" fill-opacity="0.25"/>
<circle cx="1705.33" cy="884" r="2" fill="#E6FAFA" fill-opacity="0.25"/>
<circle cx="1762.67" cy="884" r="2" fill="#E6FAFA" fill-opacity="0.25"/>
<circle cx="1820" cy="884" r="2" fill="#E6FAFA" fill-opacity="0.25"/>
<circle cx="1877.33" cy="884" r="2" fill="#E6FAFA" fill-opacity="0.25"/>
<circle cx="42.6667" cy="941.333" r="2" fill="#E6FAFA" fill-opacity="0.25"/>
<circle cx="100" cy="941.333" r="2" fill="#E6FAFA" fill-opacity="0.25"/>
<circle cx="157.333" cy="941.333" r="2" fill="#E6FAFA" fill-opacity="0.25"/>
<circle cx="214.667" cy="941.333" r="2" fill="#E6FAFA" fill-opacity="0.25"/>
<circle cx="272" cy="941.333" r="2" fill="#E6FAFA" fill-opacity="0.25"/>
<circle cx="329.333" cy="941.333" r="2" fill="#E6FAFA" fill-opacity="0.25"/>
<circle cx="386.667" cy="941.333" r="2" fill="#E6FAFA" fill-opacity="0.25"/>
<circle cx="444" cy="941.333" r="2" fill="#E6FAFA" fill-opacity="0.25"/>
<circle cx="501.333" cy="941.333" r="2" fill="#E6FAFA" fill-opacity="0.25"/>
<circle cx="558.667" cy="941.333" r="2" fill="#E6FAFA" fill-opacity="0.25"/>
<circle cx="616" cy="941.333" r="2" fill="#E6FAFA" fill-opacity="0.25"/>
<circle cx="673.333" cy="941.333" r="2" fill="#E6FAFA" fill-opacity="0.25"/>
<circle cx="730.667" cy="941.333" r="2" fill="#E6FAFA" fill-opacity="0.25"/>
<circle cx="788" cy="941.333" r="2" fill="#E6FAFA" fill-opacity="0.25"/>
<circle cx="845.333" cy="941.333" r="2" fill="#E6FAFA" fill-opacity="0.25"/>
<circle cx="902.667" cy="941.333" r="2" fill="#E6FAFA" fill-opacity="0.25"/>
<circle cx="960" cy="941.333" r="2" fill="#E6FAFA" fill-opacity="0.25"/>
<circle cx="1017.33" cy="941.333" r="2" fill="#E6FAFA" fill-opacity="0.25"/>
<circle cx="1074.67" cy="941.333" r="2" fill="#E6FAFA" fill-opacity="0.25"/>
<circle cx="1132" cy="941.333" r="2" fill="#E6FAFA" fill-opacity="0.25"/>
<circle cx="1189.33" cy="941.333" r="2" fill="#E6FAFA" fill-opacity="0.25"/>
<circle cx="1246.67" cy="941.333" r="2" fill="#E6FAFA" fill-opacity="0.25"/>
<circle cx="1304" cy="941.333" r="2" fill="#E6FAFA" fill-opacity="0.25"/>
<circle cx="1361.33" cy="941.333" r="2" fill="#E6FAFA" fill-opacity="0.25"/>
<circle cx="1418.67" cy="941.333" r="2" fill="#E6FAFA" fill-opacity="0.25"/>
<circle cx="1476" cy="941.333" r="2" fill="#E6FAFA" fill-opacity="0.25"/>
<circle cx="1533.33" cy="941.333" r="2" fill="#E6FAFA" fill-opacity="0.25"/>
<circle cx="1590.67" cy="941.333" r="2" fill="#E6FAFA" fill-opacity="0.25"/>
<circle cx="1648" cy="941.333" r="2" fill="#E6FAFA" fill-opacity="0.25"/>
<circle cx="1705.33" cy="941.333" r="2" fill="#E6FAFA" fill-opacity="0.25"/>
<circle cx="1762.67" cy="941.333" r="2" fill="#E6FAFA" fill-opacity="0.25"/>
<circle cx="1820" cy="941.333" r="2" fill="#E6FAFA" fill-opacity="0.25"/>
<circle cx="1877.33" cy="941.333" r="2" fill="#E6FAFA" fill-opacity="0.25"/>
<circle cx="42.6667" cy="998.667" r="2" fill="#E6FAFA" fill-opacity="0.25"/>
<circle cx="100" cy="998.667" r="2" fill="#E6FAFA" fill-opacity="0.25"/>
<circle cx="157.333" cy="998.667" r="2" fill="#E6FAFA" fill-opacity="0.25"/>
<circle cx="214.667" cy="998.667" r="2" fill="#E6FAFA" fill-opacity="0.25"/>
<circle cx="272" cy="998.667" r="2" fill="#E6FAFA" fill-opacity="0.25"/>
<circle cx="329.333" cy="998.667" r="2" fill="#E6FAFA" fill-opacity="0.25"/>
<circle cx="386.667" cy="998.667" r="2" fill="#E6FAFA" fill-opacity="0.25"/>
<circle cx="444" cy="998.667" r="2" fill="#E6FAFA" fill-opacity="0.25"/>
<circle cx="501.333" cy="998.667" r="2" fill="#E6FAFA" fill-opacity="0.25"/>
<circle cx="558.667" cy="998.667" r="2" fill="#E6FAFA" fill-opacity="0.25"/>
<circle cx="616" cy="998.667" r="2" fill="#E6FAFA" fill-opacity="0.25"/>
<circle cx="673.333" cy="998.667" r="2" fill="#E6FAFA" fill-opacity="0.25"/>
<circle cx="730.667" cy="998.667" r="2" fill="#E6FAFA" fill-opacity="0.25"/>
<circle cx="788" cy="998.667" r="2" fill="#E6FAFA" fill-opacity="0.25"/>
<circle cx="845.333" cy="998.667" r="2" fill="#E6FAFA" fill-opacity="0.25"/>
<circle cx="902.667" cy="998.667" r="2" fill="#E6FAFA" fill-opacity="0.25"/>
<circle cx="960" cy="998.667" r="2" fill="#E6FAFA" fill-opacity="0.25"/>
<circle cx="1017.33" cy="998.667" r="2" fill="#E6FAFA" fill-opacity="0.25"/>
<circle cx="1074.67" cy="998.667" r="2" fill="#E6FAFA" fill-opacity="0.25"/>
<circle cx="1132" cy="998.667" r="2" fill="#E6FAFA" fill-opacity="0.25"/>
<circle cx="1189.33" cy="998.667" r="2" fill="#E6FAFA" fill-opacity="0.25"/>
<circle cx="1246.67" cy="998.667" r="2" fill="#E6FAFA" fill-opacity="0.25"/>
<circle cx="1304" cy="998.667" r="2" fill="#E6FAFA" fill-opacity="0.25"/>
<circle cx="1361.33" cy="998.667" r="2" fill="#E6FAFA" fill-opacity="0.25"/>
<circle cx="1418.67" cy="998.667" r="2" fill="#E6FAFA" fill-opacity="0.25"/>
<circle cx="1476" cy="998.667" r="2" fill="#E6FAFA" fill-opacity="0.25"/>
<circle cx="1533.33" cy="998.667" r="2" fill="#E6FAFA" fill-opacity="0.25"/>
<circle cx="1590.67" cy="998.667" r="2" fill="#E6FAFA" fill-opacity="0.25"/>
<circle cx="1648" cy="998.667" r="2" fill="#E6FAFA" fill-opacity="0.25"/>
<circle cx="1705.33" cy="998.667" r="2" fill="#E6FAFA" fill-opacity="0.25"/>
<circle cx="1762.67" cy="998.667" r="2" fill="#E6FAFA" fill-opacity="0.25"/>
<circle cx="1820" cy="998.667" r="2" fill="#E6FAFA" fill-opacity="0.25"/>
<circle cx="1877.33" cy="998.667" r="2" fill="#E6FAFA" fill-opacity="0.25"/>
<circle cx="42.6667" cy="1056" r="2" fill="#E6FAFA" fill-opacity="0.25"/>
<circle cx="100" cy="1056" r="2" fill="#E6FAFA" fill-opacity="0.25"/>
<circle cx="157.333" cy="1056" r="2" fill="#E6FAFA" fill-opacity="0.25"/>
<circle cx="214.667" cy="1056" r="2" fill="#E6FAFA" fill-opacity="0.25"/>
<circle cx="272" cy="1056" r="2" fill="#E6FAFA" fill-opacity="0.25"/>
<circle cx="329.333" cy="1056" r="2" fill="#E6FAFA" fill-opacity="0.25"/>
<circle cx="386.667" cy="1056" r="2" fill="#E6FAFA" fill-opacity="0.25"/>
<circle cx="444" cy="1056" r="2" fill="#E6FAFA" fill-opacity="0.25"/>
<circle cx="501.333" cy="1056" r="2" fill="#E6FAFA" fill-opacity="0.25"/>
<circle cx="558.667" cy="1056" r="2" fill="#E6FAFA" fill-opacity="0.25"/>
<circle cx="616" cy="1056" r="2" fill="#E6FAFA" fill-opacity="0.25"/>
<circle cx="673.333" cy="1056" r="2" fill="#E6FAFA" fill-opacity="0.25"/>
<circle cx="730.667" cy="1056" r="2" fill="#E6FAFA" fill-opacity="0.25"/>
<circle cx="788" cy="1056" r="2" fill="#E6FAFA" fill-opacity="0.25"/>
<circle cx="845.333" cy="1056" r="2" fill="#E6FAFA" fill-opacity="0.25"/>
<circle cx="902.667" cy="1056" r="2" fill="#E6FAFA" fill-opacity="0.25"/>
<circle cx="960" cy="1056" r="2" fill="#E6FAFA" fill-opacity="0.25"/>
<circle cx="1017.33" cy="1056" r="2" fill="#E6FAFA" fill-opacity="0.25"/>
<circle cx="1074.67" cy="1056" r="2" fill="#E6FAFA" fill-opacity="0.25"/>
<circle cx="1132" cy="1056" r="2" fill="#E6FAFA" fill-opacity="0.25"/>
<circle cx="1189.33" cy="1056" r="2" fill="#E6FAFA" fill-opacity="0.25"/>
<circle cx="1246.67" cy="1056" r="2" fill="#E6FAFA" fill-opacity="0.25"/>
<circle cx="1304" cy="1056" r="2" fill="#E6FAFA" fill-opacity="0.25"/>
<circle cx="1361.33" cy="1056" r="2" fill="#E6FAFA" fill-opacity="0.25"/>
<circle cx="1418.67" cy="1056" r="2" fill="#E6FAFA" fill-opacity="0.25"/>
<circle cx="1476" cy="1056" r="2" fill="#E6FAFA" fill-opacity="0.25"/>
<circle cx="1533.33" cy="1056" r="2" fill="#E6FAFA" fill-opacity="0.25"/>
<circle cx="1590.67" cy="1056" r="2" fill="#E6FAFA" fill-opacity="0.25"/>
<circle cx="1648" cy="1056" r="2" fill="#E6FAFA" fill-opacity="0.25"/>
<circle cx="1705.33" cy="1056" r="2" fill="#E6FAFA" fill-opacity="0.25"/>
<circle cx="1762.67" cy="1056" r="2" fill="#E6FAFA" fill-opacity="0.25"/>
<circle cx="1820" cy="1056" r="2" fill="#E6FAFA" fill-opacity="0.25"/>
<circle cx="1877.33" cy="1056" r="2" fill="#E6FAFA" fill-opacity="0.25"/>
</g>
<defs>
<clipPath id="clip0_267_1053">
<rect width="1920" height="1080" fill="white"/>
</clipPath>
</defs>
</svg>
